<svg xmlns="http://www.w3.org/2000/svg" version="1.1" width="96" height="96" viewbox="0 0 96 96"><rect x="0" y="0" width="96" height="96" fill="#FFFFFF"></rect><g transform="translate(23.4, 59.400000000000006)"><path d="M29.86 10.13Q29.18 10.56 29.04 10.56 28.9 10.56 28.42 10.08 27.94 9.6 27.94 9.46L27.94 9.46Q27.94 9.12 28.75 8.59L28.75 8.59Q32.06 6.53 36.05 6L36.05 6Q37.01 5.9 37.78 5.9L37.78 5.9Q39.55 5.9 40.66 6.14L40.66 6.14Q40.7 6.14 37.34 2.74 33.98-0.67 21.74-12.86L21.74-12.86Q2.78-31.87 2.69-32.06L2.69-32.06Q2.64-32.16 2.64-32.3L2.64-32.3Q2.64-32.69 2.9-33.02 3.17-33.36 3.55-33.36L3.55-33.36Q3.84-33.36 3.98-33.26L3.98-33.26Q4.18-33.17 23.14-14.21L23.14-14.21Q25.54-11.81 29.04-8.33 32.54-4.85 34.44-2.95 36.34-1.06 38.35 0.96 40.37 2.98 41.26 3.84 42.14 4.7 42.14 4.66L42.14 4.66Q42.1 4.61 42 3.89L42 3.89Q41.95 3.41 41.95 1.97L41.95 1.97Q41.95-3.07 44.59-7.25L44.59-7.25Q45.12-8.06 45.46-8.06L45.46-8.06Q45.6-8.06 46.08-7.58 46.56-7.1 46.56-6.96 46.56-6.82 46.13-6.14L46.13-6.14Q43.82-2.35 43.82 2.16L43.82 2.16Q43.82 5.47 45.12 8.21L45.12 8.21Q45.31 8.74 45.31 8.88L45.31 8.88Q45.22 9.31 44.83 9.31L44.83 9.31Q44.54 9.31 44.06 9.02L44.06 9.02Q41.09 7.78 38.16 7.78L38.16 7.78Q36.58 7.78 35.86 7.92L35.86 7.92Q32.54 8.4 29.86 10.13L29.86 10.13Z" fill="#404040"></path></g></svg>